#Comment line ignore any data following # character 
#Hierarchical Translation and Rotation (.htr) file 
[Header]	
#Header keywords are followed by a single value 
FileType HTR		#Single word string
DataType HTRS		#Translation followed by rotation and scale data
FileVersion 1		#integer
NumSegments 64		#integer
NumFrames 3		#integer
DataFrameRate 30		#integer, data frame rate in this file
EulerRotationOrder ZYX
CalibrationUnits mm
RotationUnits Degrees
GlobalAxisofGravity Y
BoneLengthAxis Y
ScaleFactor 1.00
[SegmentNames&Hierarchy]
#CHILD	PARENT
Pinger_Root GLOBAL
Pelvis Pinger_Root
L_Hip Pelvis
R_Hip Pelvis
Rear_Leg01 Pelvis
Spine1 Pelvis
L_Leg01 L_Hip
L_Leg02 L_Leg01
L_Leg03 L_Leg02
L_Foot L_Leg03
L_Toe1_01 L_Foot
L_Toe2_01 L_Foot
L_Toe3_01 L_Foot
planeAlignerLeft L_Foot
L_Toe1_02 L_Toe1_01
L_Toe1_03 L_Toe1_02
L_Toe2_02 L_Toe2_01
L_Toe2_03 L_Toe2_02
L_Toe3_02 L_Toe3_01
L_Toe3_03 L_Toe3_02
planeLockWeightLeft planeAlignerLeft
R_Leg01 R_Hip
R_Leg02 R_Leg01
R_Leg03 R_Leg02
R_Foot R_Leg03
planeAlignerRight R_Foot
R_Toe1_01 R_Foot
R_Toe2_01 R_Foot
R_Toe3_01 R_Foot
planeLockWeightRight planeAlignerRight
R_Toe1_02 R_Toe1_01
R_Toe1_03 R_Toe1_02
R_Toe2_02 R_Toe2_01
R_Toe2_03 R_Toe2_02
R_Toe3_02 R_Toe3_01
R_Toe3_03 R_Toe3_02
Rear_Leg02 Rear_Leg01
Rear_Leg03 Rear_Leg02
Rear_Leg04 Rear_Leg03
Rear_Foot Rear_Leg04
planeAlignerCenter Rear_Foot
Rear_Toe1_01 Rear_Foot
Rear_Toe2_01 Rear_Foot
Rear_Toe3_01 Rear_Foot
planeLockWeightCenter planeAlignerCenter
Rear_Toe1_02 Rear_Toe1_01
Rear_Toe1_03 Rear_Toe1_02
Rear_Toe2_02 Rear_Toe2_01
Rear_Toe2_03 Rear_Toe2_02
Rear_Toe3_02 Rear_Toe3_01
Rear_Toe3_03 Rear_Toe3_02
Back_Bone Spine1
Head Spine1
Motor_Bone Back_Bone
Ping_Mechanism Back_Bone
BN_LookIK Head
bottomMouth Head
L_Mouth01 Head
L_mouthFront Head
mouthGun Head
R_Mouth01 Head
R_mouthFront Head
TopMouth Head
weapon_bone Head
[BasePosition]
#SegmentName Tx, Ty, Tz, Rx, Ry, Rz, BoneLength
Pinger_Root 0.000000 0.000000 0.000000 -90.000000 0.000000 0.000000 10.000000 
Pelvis 0.000000 0.000000 0.000000 0.000000 0.000000 0.000000 10.000000 
L_Hip 0.000000 0.000000 0.000000 0.000000 0.000000 0.000000 10.000000 
R_Hip 0.000000 0.000000 0.000000 0.000000 0.000000 0.000000 10.000000 
Rear_Leg01 0.000000 0.000000 0.000000 0.000000 0.000000 0.000000 10.000000 
Spine1 0.000000 0.000000 0.000000 0.000000 0.000000 0.000000 10.000000 
L_Leg01 0.000000 0.000000 0.000000 0.000000 0.000000 0.000000 10.000000 
L_Leg02 0.000000 0.000000 0.000000 0.000000 0.000000 0.000000 10.000000 
L_Leg03 0.000000 0.000000 0.000000 0.000000 0.000000 0.000000 10.000000 
L_Foot 0.000000 0.000000 0.000000 0.000000 0.000000 0.000000 10.000000 
L_Toe1_01 0.000000 0.000000 0.000000 0.000000 0.000000 0.000000 10.000000 
L_Toe2_01 0.000000 0.000000 0.000000 0.000000 0.000000 0.000000 10.000000 
L_Toe3_01 0.000000 0.000000 0.000000 0.000000 0.000000 0.000000 10.000000 
planeAlignerLeft 0.000000 0.000000 0.000000 0.000000 0.000000 0.000000 10.000000 
L_Toe1_02 0.000000 0.000000 0.000000 0.000000 0.000000 0.000000 10.000000 
L_Toe1_03 0.000000 0.000000 0.000000 0.000000 0.000000 0.000000 10.000000 
L_Toe2_02 0.000000 0.000000 0.000000 0.000000 0.000000 0.000000 10.000000 
L_Toe2_03 0.000000 0.000000 0.000000 0.000000 0.000000 0.000000 10.000000 
L_Toe3_02 0.000000 0.000000 0.000000 0.000000 0.000000 0.000000 10.000000 
L_Toe3_03 0.000000 0.000000 0.000000 0.000000 0.000000 0.000000 10.000000 
planeLockWeightLeft 0.000000 0.000000 0.000000 0.000000 0.000000 0.000000 10.000000 
R_Leg01 0.000000 0.000000 0.000000 0.000000 0.000000 0.000000 10.000000 
R_Leg02 0.000000 0.000000 0.000000 0.000000 0.000000 0.000000 10.000000 
R_Leg03 0.000000 0.000000 0.000000 0.000000 0.000000 0.000000 10.000000 
R_Foot 0.000000 0.000000 0.000000 0.000000 0.000000 0.000000 10.000000 
planeAlignerRight 0.000000 0.000000 0.000000 0.000000 0.000000 0.000000 10.000000 
R_Toe1_01 0.000000 0.000000 0.000000 0.000000 0.000000 0.000000 10.000000 
R_Toe2_01 0.000000 0.000000 0.000000 0.000000 0.000000 0.000000 10.000000 
R_Toe3_01 0.000000 0.000000 0.000000 0.000000 0.000000 0.000000 10.000000 
planeLockWeightRight 0.000000 0.000000 0.000000 0.000000 0.000000 0.000000 10.000000 
R_Toe1_02 0.000000 0.000000 0.000000 0.000000 0.000000 0.000000 10.000000 
R_Toe1_03 0.000000 0.000000 0.000000 0.000000 0.000000 0.000000 10.000000 
R_Toe2_02 0.000000 0.000000 0.000000 0.000000 0.000000 0.000000 10.000000 
R_Toe2_03 0.000000 0.000000 0.000000 0.000000 0.000000 0.000000 10.000000 
R_Toe3_02 0.000000 0.000000 0.000000 0.000000 0.000000 0.000000 10.000000 
R_Toe3_03 0.000000 0.000000 0.000000 0.000000 0.000000 0.000000 10.000000 
Rear_Leg02 0.000000 0.000000 0.000000 0.000000 0.000000 0.000000 10.000000 
Rear_Leg03 0.000000 0.000000 0.000000 0.000000 0.000000 0.000000 10.000000 
Rear_Leg04 0.000000 0.000000 0.000000 0.000000 0.000000 0.000000 10.000000 
Rear_Foot 0.000000 0.000000 0.000000 0.000000 0.000000 0.000000 10.000000 
planeAlignerCenter 0.000000 0.000000 0.000000 0.000000 0.000000 0.000000 10.000000 
Rear_Toe1_01 0.000000 0.000000 0.000000 0.000000 0.000000 0.000000 10.000000 
Rear_Toe2_01 0.000000 0.000000 0.000000 0.000000 0.000000 0.000000 10.000000 
Rear_Toe3_01 0.000000 0.000000 0.000000 0.000000 0.000000 0.000000 10.000000 
planeLockWeightCenter 0.000000 0.000000 0.000000 0.000000 0.000000 0.000000 10.000000 
Rear_Toe1_02 0.000000 0.000000 0.000000 0.000000 0.000000 0.000000 10.000000 
Rear_Toe1_03 0.000000 0.000000 0.000000 0.000000 0.000000 0.000000 10.000000 
Rear_Toe2_02 0.000000 0.000000 0.000000 0.000000 0.000000 0.000000 10.000000 
Rear_Toe2_03 0.000000 0.000000 0.000000 0.000000 0.000000 0.000000 10.000000 
Rear_Toe3_02 0.000000 0.000000 0.000000 0.000000 0.000000 0.000000 10.000000 
Rear_Toe3_03 0.000000 0.000000 0.000000 0.000000 0.000000 0.000000 10.000000 
Back_Bone 0.000000 0.000000 0.000000 0.000000 0.000000 0.000000 10.000000 
Head 0.000000 0.000000 0.000000 0.000000 0.000000 0.000000 10.000000 
Motor_Bone 0.000000 0.000000 0.000000 0.000000 0.000000 0.000000 10.000000 
Ping_Mechanism 0.000000 0.000000 0.000000 0.000000 0.000000 0.000000 10.000000 
BN_LookIK 0.000000 0.000000 0.000000 0.000000 0.000000 0.000000 10.000000 
bottomMouth 0.000000 0.000000 0.000000 0.000000 0.000000 0.000000 10.000000 
L_Mouth01 0.000000 0.000000 0.000000 0.000000 0.000000 0.000000 10.000000 
L_mouthFront 0.000000 0.000000 0.000000 0.000000 0.000000 0.000000 10.000000 
mouthGun 0.000000 0.000000 0.000000 0.000000 0.000000 0.000000 10.000000 
R_Mouth01 0.000000 0.000000 0.000000 0.000000 0.000000 0.000000 10.000000 
R_mouthFront 0.000000 0.000000 0.000000 0.000000 0.000000 0.000000 10.000000 
TopMouth 0.000000 0.000000 0.000000 0.000000 0.000000 0.000000 10.000000 
weapon_bone 0.000000 0.000000 0.000000 0.000000 0.000000 0.000000 10.000000 
#Beginning of Data. Separated by tabs
#Fr	Tx	Ty	Tz	Rx	Ry	Rz	SF
[Pinger_Root]
23 0.000000 0.000000 0.000000 -0.000075 -0.000000 -0.000020 0.000000
24 0.000000 0.000000 0.000000 -0.000075 -0.000000 -0.000020 0.000000
25 0.000000 0.000000 0.000000 -0.000075 -0.000000 -0.000020 0.000000
[Pelvis]
23 909.415710 495.611481 4371.833984 -32.917812 -82.227158 25.512053 4492.838379
24 913.243774 493.474640 4371.283691 -33.643589 -82.178406 26.242880 4492.844727
25 915.957764 492.054413 4369.441406 -34.360153 -82.128273 26.964500 4491.449219
[L_Hip]
23 5.766392 125.831482 872.656799 160.158691 -45.484905 122.312202 881.701050
24 5.766392 125.831482 872.656799 160.158691 -45.484894 122.312187 881.701050
25 5.766392 125.831482 872.656799 160.158691 -45.484894 122.312202 881.701050
[R_Hip]
23 5.765438 125.836372 -872.654907 38.087841 49.812687 125.703735 881.699829
24 5.765438 125.836372 -872.654907 38.087830 49.812672 125.703735 881.699829
25 5.765438 125.836372 -872.654907 38.087841 49.812687 125.703735 881.699829
[Rear_Leg01]
23 -192.298416 -925.602966 -0.001907 170.514526 -3.400333 -162.611679 945.367432
24 -192.298416 -925.602966 -0.001907 170.507645 -3.464934 -162.743774 945.367432
25 -192.298416 -925.602966 -0.001907 170.500900 -3.529551 -162.875870 945.367432
[Spine1]
23 290.604584 5.007505 0.000477 -12.181078 13.353279 0.166727 290.647736
24 290.604584 5.007505 0.000477 -12.159925 13.365471 0.210749 290.647736
25 290.604584 5.007505 0.000477 -12.138758 13.377643 0.254778 290.647736
[L_Leg01]
23 761.932007 -0.002384 -0.069261 26.559965 -7.152728 -31.352663 761.932068
24 761.932007 -0.002384 -0.069261 26.551197 -7.144907 -31.302166 761.932068
25 761.932007 -0.002384 -0.069261 26.455719 -7.260473 -31.011269 761.932068
[L_Leg02]
23 1441.140503 -0.000954 -0.000715 -1.381739 0.224026 -80.658890 1441.140503
24 1441.140503 -0.000954 -0.000715 -1.381682 0.224378 -80.629692 1441.140503
25 1441.140503 -0.000954 -0.000715 -1.381625 0.224730 -80.600510 1441.140503
[L_Leg03]
23 1686.963989 -0.000715 -0.000954 0.002313 -0.000399 109.591423 1686.963989
24 1686.963989 -0.000715 -0.000954 0.002313 -0.000397 109.464386 1686.963989
25 1686.963989 -0.000715 -0.000954 0.002313 -0.000398 109.535004 1686.963989
[L_Foot]
23 3041.570068 -30.715107 11.297464 -7.418799 12.727872 34.756618 3041.746094
24 3041.570068 -30.715107 11.297464 -7.457289 12.722319 34.689682 3041.746094
25 3041.570068 -30.715107 11.297464 -7.495773 12.716719 34.622746 3041.746094
[L_Toe1_01]
23 -188.216690 -224.732346 -21.137953 93.639214 -3.983588 -171.155579 293.899567
24 -188.216690 -224.732346 -21.137953 93.640602 -3.975826 -171.173416 293.899567
25 -188.216690 -224.732346 -21.137953 93.641991 -3.968064 -171.191269 293.899567
[L_Toe2_01]
23 200.746536 -219.926590 148.838394 -90.762375 -22.630976 -53.504307 332.896027
24 200.746536 -219.926590 148.838394 -90.772865 -22.626968 -53.481678 332.896027
25 200.746536 -219.926590 148.838394 -90.783340 -22.622955 -53.459038 332.896027
[L_Toe3_01]
23 188.832520 -219.859131 -191.078659 -101.521149 16.075880 -71.068474 347.140900
24 188.832520 -219.859131 -191.078659 -101.522820 16.088005 -71.052307 347.140900
25 188.832520 -219.859131 -191.078659 -101.524483 16.100134 -71.036140 347.140900
[planeAlignerLeft]
23 0.812531 -811.448792 -0.314951 0.000000 -90.000000 -90.001900 811.449280
24 0.812531 -811.448792 -0.314951 0.000000 -90.000000 -90.001900 811.449280
25 0.812531 -811.448792 -0.314951 0.000000 -90.000000 -90.001900 811.449280
[L_Toe1_02]
23 413.761139 0.000477 0.000000 0.000203 -25.410625 -0.000182 413.761139
24 413.761139 0.000477 0.000000 0.000203 -25.410625 -0.000182 413.761139
25 413.761139 0.000477 0.000000 0.000203 -25.410625 -0.000182 413.761139
[L_Toe1_03]
23 464.317322 0.000358 -0.000089 0.003996 55.841415 0.003996 464.317322
24 464.317322 0.000358 -0.000089 0.003998 55.857365 0.003998 464.317322
25 464.317322 0.000358 -0.000089 0.004000 55.873299 0.004000 464.317322
[L_Toe2_02]
23 342.235809 -0.000477 0.000238 0.001188 -72.439529 0.001188 342.235809
24 342.235809 -0.000477 0.000238 0.001188 -72.450005 0.001188 342.235809
25 342.235809 -0.000477 0.000238 0.001187 -72.460442 0.001187 342.235809
[L_Toe2_03]
23 420.210846 -0.000715 0.000000 0.029914 85.502945 0.029914 420.210846
24 420.210846 -0.000715 0.000000 0.030046 85.522804 0.030046 420.210846
25 420.210846 -0.000715 0.000000 0.030179 85.542534 0.030179 420.210846
[L_Toe3_02]
23 329.270111 0.000954 0.000000 0.001180 -78.080238 0.001180 329.270111
24 329.270111 0.000954 0.000000 0.001180 -78.093285 0.001180 329.270111
25 329.270111 0.000954 0.000000 0.001180 -78.106339 0.001180 329.270111
[L_Toe3_03]
23 439.137451 -0.001907 0.000954 -179.980148 86.952133 -179.976654 439.137451
24 439.137451 -0.001907 0.000954 -179.980255 86.936630 -179.976761 439.137451
25 439.137451 -0.001907 0.000954 -179.980362 86.920883 -179.976868 439.137451
[planeLockWeightLeft]
23 -0.000954 0.000238 -0.000305 -0.011826 -0.004376 0.005620 0.001029
24 -0.000954 0.000238 -0.000305 -0.011826 -0.004376 0.005620 0.001029
25 -0.000954 0.000238 -0.000305 -0.011826 -0.004376 0.005620 0.001029
[R_Leg01]
23 761.455627 -0.001907 -0.000358 122.493324 -22.259832 28.641693 761.455688
24 761.455627 -0.001907 -0.000358 122.592773 -22.432859 28.565521 761.455688
25 761.455627 -0.001907 -0.000358 122.692589 -22.605762 28.488928 761.455688
[R_Leg02]
23 1441.140625 0.000000 -0.000238 -2.041835 -0.565691 -138.787857 1441.140625
24 1441.140625 0.000000 -0.000238 -2.039742 -0.565762 -138.742966 1441.140625
25 1441.140625 0.000000 -0.000238 -2.047485 -0.570064 -138.973343 1441.140625
[R_Leg03]
23 1686.963989 0.000954 0.001431 0.093187 -0.054929 136.171112 1686.963989
24 1686.963989 0.000954 0.001431 0.093186 -0.054931 136.173233 1686.963989
25 1686.963989 0.000954 0.001431 0.093185 -0.054933 136.175385 1686.963989
[R_Foot]
23 3041.560059 -30.531288 -11.204481 -10.944674 -24.209930 59.970142 3041.734131
24 3041.560059 -30.531288 -11.204481 -11.019765 -24.210789 59.984554 3041.734131
25 3041.560059 -30.531288 -11.204481 -11.094858 -24.211634 59.998978 3041.734131
[planeAlignerRight]
23 -0.635147 -812.270569 -0.364304 0.000000 -89.960434 -90.005180 812.270874
24 -0.635147 -812.270569 -0.364304 0.000000 -89.960434 -90.005180 812.270874
25 -0.635147 -812.270569 -0.364304 0.000000 -89.960434 -90.005180 812.270874
[R_Toe1_01]
23 -188.383347 -224.864899 21.052242 77.211182 9.008481 -170.247833 294.101532
24 -188.383347 -224.864899 21.052242 77.202370 8.954981 -170.383209 294.101532
25 -188.383347 -224.864899 21.052242 77.202370 8.954979 -170.383209 294.101532
[R_Toe2_01]
23 200.637817 -220.002121 -148.787384 -96.466187 44.389347 -60.636448 332.857574
24 200.637817 -220.002121 -148.787384 -96.373772 44.386406 -60.485485 332.857574
25 200.637817 -220.002121 -148.787384 -96.373779 44.386406 -60.485493 332.857574
[R_Toe3_01]
23 188.606735 -220.092957 191.126343 -76.594452 -3.012966 -66.717888 347.192566
24 188.606735 -220.092957 191.126343 -76.579140 -3.084909 -66.590919 347.192566
25 188.606735 -220.092957 191.126343 -76.579155 -3.084911 -66.590927 347.192566
[planeLockWeightRight]
23 -0.000477 0.000000 0.000000 -0.011823 -0.004379 -0.000027 0.000477
24 -0.000477 0.000000 0.000000 -0.011823 -0.004379 -0.000027 0.000477
25 -0.000477 0.000000 0.000000 -0.011823 -0.004379 -0.000027 0.000477
[R_Toe1_02]
23 413.762085 0.000477 -0.000119 0.001390 -25.221737 0.001390 413.762085
24 413.762085 0.000477 -0.000119 0.001390 -25.262276 0.001390 413.762085
25 413.762085 0.000477 -0.000119 0.001389 -25.302822 0.001389 413.762085
[R_Toe1_03]
23 464.317810 0.000000 0.001088 0.002936 42.869789 0.002936 464.317810
24 464.317810 0.000000 0.001088 0.002946 43.045197 0.002946 464.317810
25 464.317810 0.000000 0.001088 0.002946 43.045193 0.002946 464.317810
[R_Toe2_02]
23 342.234741 -0.000954 0.000238 0.001193 -69.569382 0.001193 342.234741
24 342.234741 -0.000954 0.000238 0.001192 -69.633545 0.001192 342.234741
25 342.234741 -0.000954 0.000238 0.001192 -69.697784 0.001192 342.234741
[R_Toe2_03]
23 420.210846 0.000715 -0.000268 0.011977 78.752914 0.011977 420.210846
24 420.210846 0.000715 -0.000268 0.012135 78.900040 0.012135 420.210846
25 420.210846 0.000715 -0.000268 0.012130 78.895905 0.012130 420.210846
[R_Toe3_02]
23 329.270355 -0.000477 -0.000954 0.001176 -83.020988 0.001176 329.270355
24 329.270355 -0.000477 -0.000954 0.001176 -83.017250 0.001176 329.270355
25 329.270355 -0.000477 -0.000954 0.001176 -83.013489 0.001176 329.270355
[R_Toe3_03]
23 439.137939 0.000238 0.001431 -179.999023 65.959129 -179.995453 439.137939
24 439.137939 0.000238 0.001431 -179.999039 65.852890 -179.995468 439.137939
25 439.137939 0.000238 0.001431 -179.999039 65.852890 -179.995468 439.137939
[Rear_Leg02]
23 1162.777710 -0.029802 0.005960 1.239546 -2.713539 -136.408112 1162.777710
24 1162.777710 -0.029802 0.005960 1.238438 -2.713482 -136.389053 1162.777710
25 1162.777710 -0.029802 0.005960 1.237331 -2.713425 -136.369995 1162.777710
[Rear_Leg03]
23 607.192505 -0.013351 -0.073195 0.010469 -0.005153 68.764404 607.192505
24 607.192505 -0.013351 -0.073195 0.010467 -0.005157 68.815331 607.192505
25 607.192505 -0.013351 -0.073195 0.010465 -0.005162 68.866234 607.192505
[Rear_Leg04]
23 995.874512 -0.020504 -0.011921 -0.040290 -0.018594 67.814209 995.874573
24 995.874512 -0.020504 -0.011921 -0.040287 -0.018599 67.799728 995.874573
25 995.874512 -0.020504 -0.011921 -0.040285 -0.018604 67.785278 995.874573
[Rear_Foot]
23 3096.176270 -0.067472 -0.041425 -169.788391 74.994537 16.994446 3096.176270
24 3096.176270 -0.067472 -0.041425 -169.825272 74.938683 16.944855 3096.176270
25 3096.176270 -0.067472 -0.041425 -169.861832 74.882851 16.895597 3096.176270
[planeAlignerCenter]
23 0.350077 0.966311 -838.790894 0.000009 0.000003 -179.999985 838.791565
24 0.350077 0.966311 -838.790894 0.000009 0.000003 -179.999985 838.791565
25 0.350077 0.966311 -838.790894 0.000009 0.000003 -179.999985 838.791565
[Rear_Toe1_01]
23 0.653352 83.966492 -371.173737 0.288091 41.914127 90.413170 380.553192
24 0.653352 83.966492 -371.173737 0.288088 41.914131 90.413170 380.553192
25 0.653352 83.966492 -371.173737 0.288091 41.914127 90.413170 380.553192
[Rear_Toe2_01]
23 178.200760 -294.826019 -362.060547 -7.196267 34.406261 -66.271294 499.765686
24 178.200760 -294.826019 -362.060547 -7.196269 34.406261 -66.271301 499.765686
25 178.200760 -294.826019 -362.060547 -7.196267 34.406261 -66.271294 499.765686
[Rear_Toe3_01]
23 -153.359680 -308.780914 -362.060852 3.289418 33.518005 -112.540970 499.952881
24 -153.359680 -308.780914 -362.060852 3.289415 33.517998 -112.540970 499.952881
25 -153.359680 -308.780914 -362.060852 3.289418 33.518005 -112.540970 499.952881
[planeLockWeightCenter]
23 -0.000062 0.000238 0.000000 -0.011814 -0.004373 -0.000015 0.000246
24 -0.000062 0.000238 0.000000 -0.011814 -0.004373 -0.000015 0.000246
25 -0.000062 0.000238 0.000000 -0.011814 -0.004373 -0.000015 0.000246
[Rear_Toe1_02]
23 379.707825 0.194073 0.000477 -0.000242 -31.676744 0.006934 379.707855
24 379.707825 0.194073 0.000477 -0.000242 -31.676744 0.006934 379.707855
25 379.707825 0.194073 0.000477 -0.000242 -31.676744 0.006934 379.707855
[Rear_Toe1_03]
23 500.129700 0.165701 0.000119 -0.000103 51.902466 0.007295 500.129761
24 500.129700 0.165701 0.000119 -0.000103 51.902466 0.007295 500.129761
25 500.129700 0.165701 0.000119 -0.000103 51.902481 0.007295 500.129761
[Rear_Toe2_02]
23 340.494507 0.000238 -0.000954 0.001192 -69.854523 0.001192 340.494507
24 340.494507 0.000238 -0.000954 0.001192 -69.854523 0.001192 340.494507
25 340.494507 0.000238 -0.000954 0.001192 -69.854523 0.001192 340.494507
[Rear_Toe2_03]
23 433.103577 0.000000 0.000238 0.006696 69.810303 0.006696 433.103546
24 433.103577 0.000000 0.000238 0.006696 69.810303 0.006696 433.103546
25 433.103577 0.000000 0.000238 0.006696 69.810341 0.006696 433.103546
[Rear_Toe3_02]
23 340.494141 -0.000358 -0.000477 0.008288 -67.274704 -0.009460 340.494171
24 340.494141 -0.000358 -0.000477 0.008288 -67.274704 -0.009460 340.494171
25 340.494141 -0.000358 -0.000477 0.008288 -67.274704 -0.009460 340.494171
[Rear_Toe3_03]
23 433.103577 0.001431 -0.000238 -0.000972 65.959007 -0.004547 433.103546
24 433.103577 0.001431 -0.000238 -0.000972 65.958961 -0.004547 433.103546
25 433.103577 0.001431 -0.000238 -0.000972 65.958984 -0.004547 433.103546
[Back_Bone]
23 1312.175781 -701.934692 0.000954 0.000023 -0.000007 -85.606667 1488.125488
24 1312.175781 -701.934692 0.000954 0.000023 -0.000007 -85.606667 1488.125488
25 1312.175781 -701.934692 0.000954 0.000023 -0.000007 -85.606667 1488.125488
[Head]
23 1406.159424 809.709290 0.001431 -0.707568 -2.860378 11.441813 1622.625488
24 1406.159424 809.709290 0.001431 -0.570251 -2.259489 10.827621 1622.625488
25 1406.159424 809.709290 0.001431 -0.381542 -1.598774 9.884590 1622.625488
[Motor_Bone]
23 1158.364380 -417.834747 0.000477 -0.000105 0.000046 -105.985291 1231.419434
24 1158.364380 -417.834747 0.000477 -0.000105 0.000046 -105.985291 1231.419434
25 1158.364380 -417.834747 0.000477 -0.000105 0.000046 -105.985291 1231.419434
[Ping_Mechanism]
23 1215.237793 -433.297150 0.000954 0.000103 -0.000053 82.120995 1290.174072
24 1215.237793 -433.297150 0.000954 0.000103 -0.000053 82.120995 1290.174072
25 1215.237793 -433.297150 0.000954 0.000103 -0.000053 82.120995 1290.174072
[BN_LookIK]
23 193.241119 1380.371704 -0.002861 0.000000 89.965736 -31.038179 1393.832153
24 193.241119 1380.371704 -0.002861 0.000000 89.965736 -31.038179 1393.832153
25 193.241119 1380.371704 -0.002861 0.000000 89.965736 -31.038179 1393.832153
[bottomMouth]
23 -435.092926 615.759399 -0.000954 -0.000022 0.000016 73.527184 753.966492
24 -435.092926 615.759399 -0.000954 -0.000022 0.000016 73.527184 753.966492
25 -435.092926 615.759399 -0.000954 -0.000022 0.000016 73.527184 753.966492
[L_Mouth01]
23 554.440979 7.658243 838.222046 150.204178 23.759130 109.605339 1005.027161
24 554.440979 7.658243 838.222046 150.204178 23.759130 109.605339 1005.027161
25 554.440979 7.658243 838.222046 150.204178 23.759130 109.605339 1005.027161
[L_mouthFront]
23 551.629089 934.514771 339.150421 0.000081 2.804060 79.119301 1136.941284
24 551.629089 934.514771 339.150421 0.000081 2.804060 79.119301 1136.941284
25 551.629089 934.514771 339.150421 0.000081 2.804060 79.119301 1136.941284
[mouthGun]
23 55.332661 1627.420898 0.000000 0.000023 0.000009 -11.038128 1628.361328
24 55.332661 1627.420898 0.000000 0.000023 0.000009 -11.038128 1628.361328
25 55.332661 1627.420898 0.000000 0.000023 0.000009 -11.038128 1628.361328
[R_Mouth01]
23 554.442383 7.659197 -838.223938 29.795891 -23.759109 109.605331 1005.029541
24 554.442383 7.659197 -838.223938 29.795891 -23.759109 109.605331 1005.029541
25 554.442383 7.659197 -838.223938 29.795891 -23.759109 109.605331 1005.029541
[R_mouthFront]
23 551.629089 934.514282 -339.151367 0.000029 -2.803930 79.119133 1136.941162
24 551.629089 934.514282 -339.151367 0.000029 -2.803930 79.119133 1136.941162
25 551.629089 934.514282 -339.151367 0.000029 -2.803930 79.119133 1136.941162
[TopMouth]
23 461.269867 -56.106091 -0.008583 -0.000059 -0.000268 92.025169 464.669525
24 461.269867 -56.106091 -0.008583 -0.000059 -0.000268 92.025169 464.669525
25 461.269867 -56.106091 -0.008583 -0.000059 -0.000268 92.025169 464.669525
[weapon_bone]
23 -987.239868 1448.372803 0.001431 0.000000 89.965736 -31.038221 1752.833740
24 -987.239868 1448.372803 0.001431 0.000000 89.965736 -31.038221 1752.833740
25 -987.239868 1448.372803 0.001431 0.000000 89.965736 -31.038221 1752.833740
